# xmcd
#
# Track frame offsets:
#	150
#	6637
#	21506
#	36635
#	57411
#	67461
#	90648
#	110854
#	129538
#	143798
#	168364
#	181332
#	198484
#
# Disc length: 2855 seconds
# Revision: 1
# Processed by: cddbd v1.5.2PL0 Copyright (c) Steve Scherf et al.
# Submitted via: dBpowerAMP V12.0
#
DISCID=d00b250d
DTITLE=The Mike Eldred Trio - 61/49
DYEAR=2011
DGENRE=Blues
TTITLE0=Don't Go Down There
TTITLE1=Jake's Boogie
TTITLE2=Louise
TTITLE3=Mr. Newman
TTITLE4=She's a Rocket
TTITLE5=Ruby's Blues
TTITLE6=For a Girl
TTITLE7=This Old Train
TTITLE8=Jimmy, Jimmy
TTITLE9=Ms. Gayle's Chicken House
TTITLE10=I Ain't Comin' Back
TTITLE11=Lookie Here
TTITLE12=61 and 49
EXTD=
EXTT0=
EXTT1=
EXTT2=
EXTT3=
EXTT4=
EXTT5=
EXTT6=
EXTT7=
EXTT8=
EXTT9=
EXTT10=
EXTT11=
EXTT12=
PLAYORDER=
